<svg width="54" height="54" viewBox="0 0 54 54" fill="none" xmlns="http://www.w3.org/2000/svg">
<circle cx="27" cy="27" r="26.5" fill="white" stroke="#E6E8EB"/>
<path d="M26.9955 14.1431C24.9496 14.1431 22.9874 14.9558 21.5407 16.4025C20.094 17.8492 19.2813 19.8114 19.2812 21.8574C19.2812 27.4631 25.8127 34.0588 26.0827 34.3416C26.2022 34.4621 26.3444 34.5578 26.5011 34.6231C26.6578 34.6883 26.8258 34.7219 26.9955 34.7219C27.1653 34.7219 27.3333 34.6883 27.49 34.6231C27.6467 34.5578 27.7889 34.4621 27.9084 34.3416C28.1784 34.0588 34.7098 27.4631 34.7098 21.8574C34.7098 19.8114 33.8971 17.8492 32.4504 16.4025C31.0036 14.9558 29.0415 14.1431 26.9955 14.1431Z" fill="#394358"/>
<path d="M26.9987 39.8575C23.3345 39.8575 20.5702 38.1989 20.5702 36.0004C20.5684 35.6692 20.634 35.3411 20.763 35.0361C20.8189 34.8697 20.9082 34.7166 21.0254 34.586C21.1427 34.4555 21.2855 34.3503 21.4449 34.2771C21.6043 34.2038 21.7771 34.1639 21.9525 34.1599C22.1279 34.1559 22.3023 34.1878 22.4649 34.2537C22.6276 34.3197 22.775 34.4182 22.8981 34.5432C23.0212 34.6683 23.1174 34.8172 23.1808 34.9808C23.2442 35.1444 23.2734 35.3193 23.2667 35.4946C23.2599 35.67 23.2174 35.8421 23.1416 36.0004C23.1416 36.2189 24.4273 37.2861 26.9987 37.2861C29.5702 37.2861 30.8559 36.2575 30.8559 36.0004C30.7279 35.6865 30.7291 35.3348 30.8591 35.0218C30.9891 34.7088 31.2375 34.4598 31.5502 34.3289C31.7071 34.264 31.8754 34.2307 32.0452 34.2311C32.215 34.2316 32.3831 34.2656 32.5397 34.3314C32.6963 34.3971 32.8384 34.4933 32.9576 34.6142C33.0769 34.7352 33.1709 34.8786 33.2345 35.0361C33.3634 35.3411 33.4291 35.6692 33.4273 36.0004C33.4273 38.1989 30.663 39.8575 26.9987 39.8575ZM35.703 30.6775C35.8113 30.5476 35.8929 30.3976 35.9431 30.2361C35.9933 30.0746 36.0111 29.9048 35.9956 29.7364C35.9801 29.568 35.9315 29.4043 35.8526 29.2547C35.7737 29.1051 35.6661 28.9726 35.5359 28.8647L20.1073 16.0075C19.9765 15.8995 19.8256 15.8182 19.6634 15.7685C19.5011 15.7187 19.3307 15.7014 19.1617 15.7175C18.8205 15.7501 18.5063 15.9168 18.288 16.1811C18.0698 16.4454 17.9655 16.7855 17.998 17.1267C18.0306 17.4679 18.1973 17.7821 18.4616 18.0004L33.8902 30.8575C34.1215 31.0492 34.4126 31.1538 34.713 31.1532C34.9029 31.152 35.0902 31.1087 35.2614 31.0264C35.4326 30.9441 35.5834 30.825 35.703 30.6775Z" fill="#FF6B6B"/>
</svg>
