<svg width="54" height="54" viewBox="0 0 54 54" fill="none" xmlns="http://www.w3.org/2000/svg">
<circle cx="27" cy="27" r="26.5" fill="white" stroke="#E6E8EB"/>
<path d="M34.8337 25.7946C33.3961 25.7915 32.0183 25.219 31.0018 24.2024C29.9853 23.1859 29.4128 21.8081 29.4096 20.3705C29.4157 19.7528 29.5299 19.1409 29.7471 18.5625H17.356C16.7167 18.5625 16.1035 18.8165 15.6514 19.2686C15.1993 19.7207 14.9453 20.3339 14.9453 20.9732V35.4375C14.9453 36.0769 15.1993 36.69 15.6514 37.1421C16.1035 37.5942 16.7167 37.8482 17.356 37.8482H36.6417C37.2811 37.8482 37.8943 37.5942 38.3464 37.1421C38.7985 36.69 39.0525 36.0769 39.0525 35.4375V23.7335C38.551 24.3738 37.9108 24.892 37.18 25.249C36.4492 25.606 35.647 25.7926 34.8337 25.7946Z" fill="#0F172A"/>
<path d="M32.6171 25.3123L28.4948 28.5547C28.0706 28.895 27.5439 29.0819 27.0001 29.0851C26.4522 29.0847 25.9208 28.8976 25.4934 28.5547L15.043 20.3101C15.1868 19.8071 15.4904 19.3646 15.9079 19.0493C16.3254 18.734 16.8341 18.5631 17.3573 18.5623H29.7483C29.5311 19.1407 29.4169 19.7526 29.4108 20.3704C29.4154 21.4148 29.72 22.4359 30.2884 23.3121C30.8569 24.1882 31.6652 24.8826 32.6171 25.3123ZM34.8349 16.1516C34.0005 16.1516 33.1849 16.399 32.4911 16.8626C31.7974 17.3262 31.2566 17.985 30.9373 18.7559C30.618 19.5268 30.5345 20.375 30.6972 21.1934C30.86 22.0118 31.2618 22.7635 31.8518 23.3535C32.4418 23.9435 33.1935 24.3453 34.0119 24.508C34.8303 24.6708 35.6785 24.5873 36.4494 24.268C37.2203 23.9487 37.8791 23.4079 38.3427 22.7142C38.8063 22.0204 39.0537 21.2048 39.0537 20.3704C39.0537 19.2515 38.6092 18.1784 37.818 17.3873C37.0269 16.5961 35.9538 16.1516 34.8349 16.1516Z" fill="#FF6B6B"/>
</svg>
