<svg width="54" height="54" viewBox="0 0 54 54" fill="none" xmlns="http://www.w3.org/2000/svg">
<circle cx="27" cy="27" r="26.5" fill="white" stroke="#E6E8EB"/>
<path d="M30.0839 31.2763L29.5349 31.8543C29.5349 31.8543 28.23 33.2281 24.6681 29.4781C21.1063 25.7281 22.4112 24.3544 22.4112 24.3544L22.7569 23.9904C23.6086 23.0938 23.6889 21.6542 22.9458 20.6033L21.4259 18.4536C20.5063 17.1529 18.7292 16.981 17.6751 18.0908L15.7831 20.0827C15.2605 20.6329 14.9102 21.3462 14.9527 22.1376C15.0614 24.162 15.9264 28.5176 20.7534 33.5996C25.8723 38.9888 30.6753 39.203 32.6394 39.0091C33.2606 38.9478 33.8009 38.6128 34.2363 38.1544L35.9486 36.3517C37.1044 35.1349 36.7785 33.0488 35.2996 32.1975L32.9968 30.872C32.0258 30.3131 30.8428 30.4773 30.0839 31.2763Z" fill="#0F172A"/>
<path d="M33.0312 27.0008C36.3599 27.0008 39.0584 24.3023 39.0584 20.9735C39.0584 17.6448 36.3599 14.9463 33.0312 14.9463C29.7024 14.9463 27.0039 17.6448 27.0039 20.9735C27.0039 21.9377 27.2303 22.849 27.6328 23.6572C27.7398 23.8719 27.7754 24.1174 27.7134 24.3492L27.3545 25.6908C27.1986 26.2733 27.7314 26.8061 28.3139 26.6503L29.6555 26.2913C29.8873 26.2293 30.1328 26.2649 30.3476 26.3719C31.1557 26.7744 32.067 27.0008 33.0312 27.0008Z" fill="#FF6B6B"/>
</svg>
